Hanif_Deep_2_5_grf.mot
version=1
nRows=58
nColumns=19
inDegrees=yes
endheader
time	right_ground_force_vx	right_ground_force_vy	right_ground_force_vz	right_ground_force_px	right_ground_force_py	right_ground_force_pz	right_ground_torque_x	right_ground_torque_y	right_ground_torque_z	left_ground_force_vx	left_ground_force_vy	left_ground_force_vz	left_ground_force_px	left_ground_force_py	left_ground_force_pz	left_ground_torque_x	left_ground_torque_y	left_ground_torque_z
3.075000	-11.385700	295.647000	-23.523000	0.210235	0.000000	-1.437720	-20.331900	3.225640	2.726580	4.710890	328.128000	18.565100	0.240161	0.000000	-0.971502	22.357000	-9.461210	12.703200
3.080000	-11.113500	292.853000	-24.024600	0.210191	0.000000	-1.436760	-20.420600	3.231810	2.676380	4.615610	327.471000	18.759200	0.240392	0.000000	-0.971136	22.193400	-9.520680	12.743300
3.085000	-11.170100	292.876000	-23.781900	0.210488	0.000000	-1.437390	-20.236400	3.200520	2.769670	5.562160	324.523000	18.755900	0.239920	0.000000	-0.970697	21.826700	-9.444290	12.474200
3.090000	-11.651600	289.477000	-24.051700	0.210330	0.000000	-1.436860	-20.161400	3.128150	2.684120	5.531490	323.785000	18.812900	0.239728	0.000000	-0.970860	21.829500	-9.466160	12.378400
3.095000	-11.408300	288.416000	-23.877100	0.209788	0.000000	-1.437160	-20.003300	3.210460	2.511670	5.989660	319.999000	18.571800	0.239289	0.000000	-0.970775	21.532100	-9.464820	12.089100
3.100000	-11.384200	287.868000	-24.267100	0.210243	0.000000	-1.437140	-19.972900	3.264980	2.628390	6.387910	319.480000	18.094400	0.239773	0.000000	-0.970048	21.254200	-9.463810	12.235800
3.105000	-11.095500	285.069000	-24.005200	0.210327	0.000000	-1.436730	-19.890200	3.174450	2.632800	6.870440	314.932000	17.932600	0.239031	0.000000	-0.971157	21.285400	-9.397220	11.823500
3.110000	-11.349600	282.541000	-23.896800	0.210685	0.000000	-1.436160	-19.881700	3.148380	2.707100	7.131420	314.996000	17.346600	0.238083	0.000000	-0.970033	20.929200	-9.348910	11.543900
3.115000	-11.056700	281.141000	-24.472800	0.210583	0.000000	-1.435970	-19.832000	3.112560	2.659420	7.211750	312.534000	17.649800	0.238417	0.000000	-0.970312	20.849200	-9.313500	11.546400
3.120000	-11.198700	280.312000	-24.427300	0.210325	0.000000	-1.435300	-19.969500	3.230650	2.565750	7.579820	311.738000	17.866000	0.238797	0.000000	-0.969991	20.686900	-9.290020	11.630900
3.125000	-11.396800	278.787000	-24.965500	0.210585	0.000000	-1.435210	-19.887200	3.166210	2.618820	7.766260	310.474000	17.931700	0.238676	0.000000	-0.969163	20.341100	-9.228420	11.544500
3.130000	-11.049000	278.515000	-24.976200	0.211730	0.000000	-1.434900	-19.945100	3.103610	2.944490	7.580150	310.898000	17.602000	0.238167	0.000000	-0.968598	20.197900	-9.222820	11.410200
3.135000	-11.209100	277.414000	-25.037700	0.212006	0.000000	-1.435280	-19.761400	3.050940	3.010870	7.826510	309.618000	18.007700	0.237817	0.000000	-0.968682	20.133700	-9.211360	11.242500
3.140000	-11.208100	276.141000	-24.842100	0.211075	0.000000	-1.435490	-19.617000	3.096510	2.733260	7.859790	307.984000	17.820500	0.237844	0.000000	-0.968925	20.099600	-9.197990	11.192100
3.145000	-11.299400	275.240000	-24.988600	0.211479	0.000000	-1.434660	-19.781100	3.021840	2.838070	8.484640	305.249000	17.901000	0.237447	0.000000	-0.968983	19.919700	-9.201580	10.963300
3.150000	-11.228500	274.070000	-25.031400	0.211857	0.000000	-1.434520	-19.736600	3.041470	2.925660	8.188430	302.734000	17.363600	0.238305	0.000000	-0.969142	19.807900	-9.179330	11.138900
3.155000	-11.627300	274.308000	-25.408300	0.212348	0.000000	-1.435380	-19.522300	3.035200	3.059060	8.431460	303.520000	17.036500	0.237755	0.000000	-0.968816	19.755300	-9.162350	11.012200
3.160000	-11.284300	271.424000	-24.879400	0.212639	0.000000	-1.434430	-19.569100	2.933760	3.116320	8.630650	302.358000	17.265800	0.237702	0.000000	-0.968654	19.624500	-9.151740	10.946400
3.165000	-11.792900	271.496000	-24.943700	0.212531	0.000000	-1.434150	-19.661000	2.987850	3.078540	8.290010	301.328000	16.689500	0.237536	0.000000	-0.968522	19.524200	-9.142280	10.869100
3.170000	-11.819700	272.018000	-24.814300	0.212377	0.000000	-1.433800	-19.791000	2.933530	3.049330	8.582010	301.095000	17.346500	0.238147	0.000000	-0.968339	19.447500	-9.149150	11.029100
3.175000	-11.392700	270.889000	-25.437100	0.213166	0.000000	-1.434070	-19.626600	2.892780	3.249470	8.770890	303.106000	17.710800	0.237478	0.000000	-0.968745	19.699900	-9.107730	10.900100
3.180000	-11.451700	272.637000	-25.213700	0.213817	0.000000	-1.433600	-19.883200	2.949860	3.449860	8.271680	303.251000	17.477500	0.237161	0.000000	-0.968897	19.766300	-9.152210	10.810600
3.185000	-11.184600	273.534000	-25.594900	0.213637	0.000000	-1.433750	-19.903300	2.966040	3.409680	7.913850	302.785000	17.593600	0.237306	0.000000	-0.969005	19.776000	-9.183470	10.830700
3.190000	-11.176800	274.873000	-25.494700	0.214546	0.000000	-1.433300	-20.127800	3.089190	3.670770	7.714010	303.413000	17.701200	0.238317	0.000000	-0.970041	20.139500	-9.127450	11.163100
3.195000	-11.547900	277.496000	-25.286700	0.214421	0.000000	-1.433110	-20.374800	3.108220	3.675140	7.507630	306.346000	17.434300	0.238123	0.000000	-0.969711	20.240600	-9.168310	11.223500
3.200000	-11.428300	281.296000	-25.154100	0.214968	0.000000	-1.433250	-20.609100	3.108550	3.891680	7.508110	308.411000	17.664800	0.237857	0.000000	-0.969204	20.221200	-9.245740	11.212700
3.205000	-12.060100	284.617000	-24.849400	0.214831	0.000000	-1.433140	-20.887800	3.045010	3.910820	7.717590	310.199000	17.996900	0.237925	0.000000	-0.969698	20.488600	-9.282100	11.295300
3.210000	-12.504800	289.601000	-23.761900	0.216267	0.000000	-1.431570	-21.709900	3.016730	4.418870	7.724080	312.516000	17.871700	0.238615	0.000000	-0.970321	20.837400	-9.359120	11.601700
3.215000	-14.166300	295.079000	-23.927000	0.216109	0.000000	-1.432210	-21.949300	3.014560	4.455400	7.582200	317.398000	18.120000	0.237889	0.000000	-0.970217	21.138800	-9.397320	11.557800
3.220000	-14.132900	299.370000	-22.992300	0.216244	0.000000	-1.431910	-22.355600	3.043260	4.577380	7.546160	322.861000	17.731400	0.238167	0.000000	-0.970151	21.487100	-9.450680	11.868600
3.225000	-13.787300	302.821000	-22.116500	0.217206	0.000000	-1.431300	-22.789700	3.072180	4.938650	7.269270	326.444000	17.771100	0.239272	0.000000	-0.970716	21.919400	-9.541030	12.365400
3.230000	-13.391900	307.867000	-21.232900	0.216927	0.000000	-1.431770	-23.020800	3.224920	4.945020	6.290540	332.266000	17.339500	0.239235	0.000000	-0.970981	22.427600	-9.575150	12.594700
3.235000	-13.380400	312.345000	-20.126700	0.217375	0.000000	-1.431490	-23.439800	3.256660	5.175400	6.161270	339.104000	17.009000	0.239681	0.000000	-0.971414	23.043700	-9.674820	13.025800
3.240000	-12.796400	319.587000	-19.166100	0.218039	0.000000	-1.430660	-24.232600	3.271320	5.531730	4.879870	347.812000	16.583100	0.239241	0.000000	-0.970187	23.246200	-9.690130	13.233200
3.245000	-13.145400	327.342000	-18.406000	0.218769	0.000000	-1.431130	-24.669900	3.355810	5.919290	4.185410	352.529000	15.954300	0.239950	0.000000	-0.971440	24.022100	-9.769840	13.683200
3.250000	-13.024900	335.891000	-17.555500	0.219232	0.000000	-1.430210	-25.615600	3.403700	6.248050	3.616520	362.890000	14.583700	0.239964	0.000000	-0.970227	24.306100	-9.863920	14.139200
3.255000	-13.358600	343.545000	-16.612400	0.219584	0.000000	-1.429540	-26.431100	3.469980	6.526610	3.367110	370.869000	12.833300	0.239371	0.000000	-0.969713	24.658400	-9.921490	14.283300
3.260000	-14.175700	349.656000	-14.824400	0.220049	0.000000	-1.428620	-27.226100	3.422760	6.831250	4.019690	374.997000	11.217400	0.238965	0.000000	-0.970417	25.182600	-9.908090	14.336500
3.265000	-13.742400	357.542000	-13.095300	0.220356	0.000000	-1.428770	-27.777600	3.447420	7.122790	3.814680	380.933000	8.692240	0.238552	0.000000	-0.969968	25.416600	-9.937180	14.472400
3.270000	-13.038200	366.259000	-11.419500	0.220197	0.000000	-1.428410	-28.573300	3.564760	7.262000	4.188710	385.449000	6.401610	0.238275	0.000000	-0.970496	25.913300	-9.995140	14.595800
3.275000	-12.373100	373.628000	-9.156240	0.220129	0.000000	-1.428080	-29.255300	3.484310	7.416410	4.392310	391.418000	4.211550	0.237773	0.000000	-0.970099	26.156400	-10.031300	14.682000
3.280000	-11.941000	379.656000	-7.337190	0.221109	0.000000	-1.429080	-29.340400	3.571940	7.930320	4.791040	397.175000	2.284730	0.237914	0.000000	-0.970093	26.532800	-9.928640	15.003900
3.285000	-11.363200	383.840000	-4.702260	0.220914	0.000000	-1.428020	-30.062400	3.602590	7.973840	3.984910	401.409000	0.663476	0.237534	0.000000	-0.969494	26.595800	-9.911270	15.050700
3.290000	-11.197500	387.946000	-2.304840	0.221578	0.000000	-1.427790	-30.469400	3.621900	8.344830	3.465020	406.781000	-1.438170	0.237210	0.000000	-0.969720	27.057500	-9.911460	15.170700
3.295000	-10.829800	392.003000	-0.073549	0.221163	0.000000	-1.427610	-30.849500	3.553270	8.295150	2.469660	408.917000	-3.729070	0.237168	0.000000	-0.969803	27.258100	-9.737840	15.287200
3.300000	-10.156600	396.493000	2.201550	0.220289	0.000000	-1.427600	-31.198700	3.571570	8.068770	1.711650	413.809000	-6.361520	0.237186	0.000000	-0.970003	27.685900	-9.626060	15.537800
3.305000	-9.474370	397.132000	4.218930	0.220799	0.000000	-1.427330	-31.350600	3.628090	8.307190	1.541690	416.784000	-8.945830	0.236138	0.000000	-0.968697	27.345600	-9.494490	15.270100
3.310000	-8.490430	401.129000	7.079850	0.220787	0.000000	-1.427500	-31.581900	3.605070	8.416350	0.710283	417.224000	-11.151900	0.236063	0.000000	-0.968760	27.420300	-9.288290	15.304000
3.315000	-8.086570	403.650000	9.450970	0.221149	0.000000	-1.428210	-31.486600	3.527330	8.638650	0.645801	418.490000	-14.079100	0.235325	0.000000	-0.969295	27.728900	-9.129730	15.105800
3.320000	-8.418950	404.452000	11.801700	0.220229	0.000000	-1.427590	-31.802600	3.401510	8.307030	0.337082	417.133000	-16.280200	0.234888	0.000000	-0.968551	27.335900	-9.036640	14.926900
3.325000	-8.470640	405.471000	13.884400	0.220778	0.000000	-1.427540	-31.901000	3.341720	8.572010	0.859389	417.717000	-19.278200	0.234099	0.000000	-0.967658	26.989500	-8.830770	14.678900
3.330000	-8.031370	405.049000	16.043300	0.220242	0.000000	-1.427960	-31.694900	3.240180	8.365130	-0.010131	417.359000	-21.385600	0.233631	0.000000	-0.967399	26.877800	-8.631170	14.515500
3.335000	-7.643780	403.668000	18.372100	0.220211	0.000000	-1.427680	-31.693700	3.148640	8.345920	0.444970	415.032000	-24.159200	0.232886	0.000000	-0.967053	26.574100	-8.526100	14.189500
3.340000	-7.698710	402.808000	20.080100	0.220242	0.000000	-1.427940	-31.522300	3.055400	8.356070	0.107609	414.351000	-26.215600	0.232382	0.000000	-0.967391	26.678100	-8.365150	14.000100
3.345000	-6.714600	400.952000	22.200500	0.220124	0.000000	-1.427820	-31.413400	2.934920	8.285190	-1.106840	413.848000	-28.359300	0.231953	0.000000	-0.966471	26.291700	-8.126620	13.847400
3.350000	-6.650850	397.079000	24.112500	0.220625	0.000000	-1.427720	-31.145800	2.787690	8.420920	-1.785950	411.888000	-30.475300	0.231443	0.000000	-0.966461	26.178000	-7.980210	13.620800
3.355000	-6.162330	395.863000	26.211300	0.220110	0.000000	-1.427760	-31.030400	2.801670	8.213190	-2.324510	408.317000	-32.596200	0.231112	0.000000	-0.966374	25.927100	-7.707940	13.411500
3.360000	-5.614030	392.617000	27.962900	0.219893	0.000000	-1.427970	-30.689800	2.750540	8.077220	-3.070190	405.880000	-33.983000	0.230951	0.000000	-0.966030	25.648100	-7.436280	13.289300
